<svg xmlns="http://www.w3.org/2000/svg" width="15.021" height="18.99" viewBox="0 0 15.021 18.99"><defs><style>.a{fill:#ec4219;}.b{fill:#1d2e36;}</style></defs><g transform="translate(-183.795 -798.4)"><path class="a" d="M196.024,805.82c-.223-.206-.843-.659-1.341-1.022-.393-.287-.738-.543-.854-.644-1.522-1.4-1.627-3.829-2-5.342-2.361,1.417-3.451,4.455-2.7,8.024a2.612,2.612,0,0,1,0,.607c0,.974.185-.2-.809-.2-1.479,0-1.58-1.689-2.629-3.17-.243.674-1.631,4.095-1.631,5.653a6.929,6.929,0,0,0,6.93,6.932h.1a6.764,6.764,0,0,0,4.835-2.02,6.834,6.834,0,0,0,2-4.908A4.741,4.741,0,0,0,196.024,805.82Z" transform="translate(0.308 0.474)"/><path class="b" d="M196.614,805.26c-.367-.3-1.206-.9-1.55-1.148l-.15-.105a4.3,4.3,0,0,1-1.541-4.923.514.514,0,0,0-.06-.4.6.6,0,0,0-.367-.272.572.572,0,0,0-.365.047,7.476,7.476,0,0,0-4.078,7.464l.3,1.374A5.383,5.383,0,0,1,187.549,806a3.816,3.816,0,0,1-.616-2.131.551.551,0,0,0-.556-.5l-.06,0a.621.621,0,0,0-.427.26c-1.625,2.517-2.095,3.919-2.095,6.245a7.51,7.51,0,1,0,15.021,0A5.677,5.677,0,0,0,196.614,805.26Zm-.766,9.166a6.252,6.252,0,0,1-4.464,1.865H191.3a6.379,6.379,0,0,1-6.385-6.359,7.388,7.388,0,0,1,.642-3.38l.459-1.116.425.835a3.51,3.51,0,0,0,2.874,2.172.57.57,0,0,0,.575-.547l-.015-.124c-.925-4.361.873-6.492,1.444-7.042l.67-.64.056.923a5.436,5.436,0,0,0,2.088,3.812c.075.069.326.251.614.459.457.335.929.68,1.131.867a4.615,4.615,0,0,1,1.807,3.756A6.31,6.31,0,0,1,195.848,814.426Z" transform="translate(0 0)"/></g></svg>