<svg xmlns="http://www.w3.org/2000/svg" width="1624.269" height="288.24" viewBox="0 0 1624.269 288.24"><defs><style>.a{fill:none;stroke:#abd7cb;stroke-miterlimit:10;stroke-width:5px;}</style></defs><g transform="translate(0.5 0.5)"><g transform="translate(2 2)"><path class="a" d="M90.339,2.1h0a88.339,88.339,0,0,1,88.37,88.339V285H2V90.439A88.339,88.339,0,0,1,90.339,2.1Z" transform="translate(-2 -1.788)"/><rect class="a" width="20.938" height="71.301" transform="translate(21 118.295)"/><rect class="a" width="171.997" height="282.928" transform="translate(1447.272 0.312)"/><rect class="a" width="20.938" height="21.718" transform="translate(1468.241 130.589)"/><rect class="a" width="124.13" height="223.983" transform="translate(265.729)"/><rect class="a" width="163.822" height="29.176" transform="translate(245.883 223.983)"/><rect class="a" width="214.997" height="30.05" transform="translate(220.296 253.159)"/><line class="a" y1="50.145" transform="translate(291.41 84.844)"/><path class="a" d="M217.949,2.91h.686a76.949,76.949,0,0,1,76.95,76.949v203.42H141V79.859A76.949,76.949,0,0,1,217.949,2.91Z" transform="translate(1113.738 -0.07)"/><path class="a" d="M202.814,11.2h0a54.514,54.514,0,0,1,54.514,54.514V264.141a1.591,1.591,0,0,1-1.591,1.591H149.891a1.591,1.591,0,0,1-1.591-1.591V65.714A54.514,54.514,0,0,1,202.814,11.2Z" transform="translate(1129.217 17.508)"/><line class="a" x1="108.497" transform="translate(1277.174 87.278)"/><line class="a" x1="108.497" transform="translate(1277.174 106.625)"/><line class="a" x1="42.188" y2="39.255" transform="translate(1332.53 48.398)"/><line class="a" x2="43.187" y2="38.756" transform="translate(1288.282 48.398)"/><line class="a" y1="60.318" transform="translate(1331.968 27.116)"/></g></g></svg>